<svg width="111" height="111" viewBox="0 0 111 111" fill="none" xmlns="http://www.w3.org/2000/svg">
<path opacity="0.5" d="M55.5 9.25C46.3526 9.25 37.4107 11.9625 29.8049 17.0445C22.1991 22.1265 16.2711 29.3498 12.7706 37.8009C9.27004 46.252 8.35414 55.5513 10.1387 64.5229C11.9233 73.4945 16.3282 81.7355 22.7963 88.2037C29.2645 94.6719 37.5055 99.0768 46.4771 100.861C55.4487 102.646 64.7481 101.73 73.1991 98.2294C81.6502 94.7289 88.8735 88.8009 93.9555 81.1951C99.0375 73.5893 101.75 64.6474 101.75 55.5C101.75 49.4264 100.554 43.4122 98.2294 37.8009C95.9052 32.1896 92.4984 27.091 88.2037 22.7963C83.909 18.5016 78.8104 15.0949 73.1991 12.7706C67.5878 10.4463 61.5737 9.25 55.5 9.25ZM55.5 92.5C48.1821 92.5 41.0285 90.33 34.9439 86.2644C28.8593 82.1988 24.1169 76.4202 21.3165 69.6593C18.516 62.8984 17.7833 55.459 19.211 48.2817C20.6386 41.1044 24.1625 34.5116 29.3371 29.337C34.5116 24.1625 41.1044 20.6386 48.2817 19.2109C55.459 17.7833 62.8984 18.516 69.6593 21.3165C76.4202 24.1169 82.1988 28.8593 86.2644 34.9439C90.33 41.0285 92.5 48.1821 92.5 55.5C92.5 65.313 88.6018 74.7241 81.663 81.663C74.7241 88.6018 65.313 92.5 55.5 92.5Z" fill="#FF9EA3"/>
<path d="M92.5 55.5L101.75 55.5C101.75 49.4264 100.554 43.4122 98.2294 37.8009C95.9052 32.1896 92.4984 27.091 88.2037 22.7963C83.909 18.5016 78.8104 15.0949 73.1991 12.7706C67.5878 10.4463 61.5736 9.25 55.5 9.25V18.5C65.313 18.5 74.7241 22.3982 81.663 29.337C88.6018 36.2759 92.5 45.687 92.5 55.5Z" fill="#FF9EA3"/>
</svg>
