<svg width="18" height="16" viewBox="0 0 18 16" fill="none" xmlns="http://www.w3.org/2000/svg">
<path d="M3.71737 4.2942H2.81158C2.33112 4.2942 1.87034 4.46773 1.5306 4.77662C1.19086 5.0855 1 5.50444 1 5.94126V13.353C1 13.7899 1.19086 14.2088 1.5306 14.5177C1.87034 14.8266 2.33112 15.0001 2.81158 15.0001H10.9637C11.4441 15.0001 11.9049 14.8266 12.2447 14.5177C12.5844 14.2088 12.7753 13.7899 12.7753 13.353V12.5295" stroke="black" stroke-width="2" stroke-linecap="round" stroke-linejoin="round"/>
<path d="M11.8695 2.64715L14.5868 5.11774M15.8413 3.95244C16.1981 3.6281 16.3985 3.18819 16.3985 2.7295C16.3985 2.27081 16.1981 1.8309 15.8413 1.50656C15.4846 1.18221 15.0007 1 14.4962 1C13.9917 1 13.5079 1.18221 13.1511 1.50656L5.52893 8.41186V10.8824H8.2463L15.8413 3.95244Z" stroke="black" stroke-width="2" stroke-linecap="round" stroke-linejoin="round"/>
</svg>
