<svg aria-hidden="true" style="position: absolute; width: 0; height: 0; overflow: hidden;" version="1.1" xmlns="http://www.w3.org/2000/svg" xmlns:xlink="http://www.w3.org/1999/xlink">
<defs>
<symbol id="icon-back" viewBox="0 0 37 32">
<path d="M6.662 14.983l4.573 4.573c0.171 0.159 0.308 0.352 0.403 0.565s0.146 0.444 0.15 0.678-0.039 0.466-0.126 0.683c-0.088 0.217-0.218 0.414-0.383 0.579s-0.362 0.296-0.579 0.383c-0.217 0.088-0.449 0.131-0.683 0.126s-0.464-0.055-0.678-0.15c-0.214-0.095-0.406-0.232-0.565-0.403l-8.775-8.775 8.775-8.775c0.33-0.308 0.767-0.475 1.218-0.467s0.881 0.191 1.2 0.51c0.319 0.319 0.502 0.749 0.51 1.2s-0.159 0.888-0.467 1.218l-4.573 4.573h22.936c2.001 0 3.92 0.795 5.335 2.21s2.21 3.334 2.21 5.335c0 2.001-0.795 3.92-2.21 5.335s-3.334 2.21-5.335 2.21h-4.643c-0.462 0-0.905-0.183-1.231-0.51s-0.51-0.769-0.51-1.231c0-0.462 0.183-0.905 0.51-1.231s0.769-0.51 1.231-0.51h4.643c1.077 0 2.111-0.428 2.873-1.19s1.19-1.795 1.19-2.873c0-1.077-0.428-2.111-1.19-2.873s-1.795-1.19-2.873-1.19h-22.936z"></path>
</symbol>
<symbol id="icon-cross" viewBox="0 0 32 32">
<path d="M0.501 0.501c0.321-0.321 0.757-0.501 1.211-0.501s0.89 0.18 1.211 0.501l27.428 27.428c0.168 0.157 0.304 0.346 0.397 0.557s0.144 0.437 0.148 0.667c0.004 0.23-0.038 0.459-0.124 0.672s-0.215 0.408-0.377 0.57-0.357 0.291-0.57 0.377c-0.213 0.086-0.442 0.128-0.672 0.124s-0.457-0.054-0.667-0.148-0.4-0.229-0.557-0.397l-27.428-27.428c-0.321-0.321-0.501-0.757-0.501-1.211s0.18-0.89 0.501-1.211z"></path>
<path d="M30.353 0.501c0.321 0.321 0.501 0.757 0.501 1.211s-0.18 0.89-0.501 1.211l-27.429 27.428c-0.325 0.303-0.755 0.468-1.199 0.46s-0.868-0.188-1.182-0.502c-0.314-0.314-0.494-0.738-0.502-1.182s0.157-0.874 0.46-1.199l27.429-27.428c0.321-0.321 0.757-0.501 1.211-0.501s0.89 0.18 1.211 0.501z"></path>
</symbol>
<symbol id="icon-check" viewBox="0 0 42 32">
<path d="M12.731 25.014l-8.542-8.541c-0.46-0.46-1.084-0.719-1.735-0.719s-1.275 0.259-1.735 0.719c-0.46 0.46-0.719 1.084-0.719 1.735 0 0.322 0.063 0.641 0.187 0.939s0.304 0.568 0.532 0.796l10.289 10.289c0.96 0.96 2.511 0.96 3.471 0l26.043-26.043c0.46-0.46 0.719-1.084 0.719-1.735s-0.258-1.275-0.719-1.735c-0.46-0.46-1.085-0.719-1.735-0.719s-1.275 0.259-1.735 0.719l-24.32 24.295z"></path>
</symbol>
<symbol id="icon-plus" viewBox="0 0 32 32">
<path d="M29.714 18.286h-11.429v11.429c0 0.606-0.241 1.188-0.669 1.616s-1.010 0.669-1.616 0.669c-0.606 0-1.188-0.241-1.616-0.669s-0.669-1.010-0.669-1.616v-11.429h-11.429c-0.606 0-1.188-0.241-1.616-0.669s-0.669-1.010-0.669-1.616c0-0.606 0.241-1.188 0.669-1.616s1.010-0.669 1.616-0.669h11.429v-11.429c0-0.606 0.241-1.188 0.669-1.616s1.010-0.669 1.616-0.669c0.606 0 1.188 0.241 1.616 0.669s0.669 1.010 0.669 1.616v11.429h11.429c0.606 0 1.188 0.241 1.616 0.669s0.669 1.010 0.669 1.616c0 0.606-0.241 1.188-0.669 1.616s-1.010 0.669-1.616 0.669z"></path>
</symbol>
<symbol id="icon-trash" viewBox="0 0 32 32">
<path d="M5.866 32c-1.075 0-1.996-0.348-2.761-1.044s-1.148-1.533-1.15-2.512v-23.111h-1.955v-3.556h9.777v-1.778h11.732v1.778h9.777v3.556h-1.955v23.111c0 0.978-0.383 1.815-1.148 2.512s-1.686 1.045-2.763 1.044h-19.553zM9.777 24.889h3.911v-16h-3.911v16zM17.598 24.889h3.911v-16h-3.911v16z"></path>
</symbol>
<symbol id="icon-restore" viewBox="0 0 38 32">
<path d="M20.87 0c-4.151 0-8.132 1.649-11.068 4.584s-4.584 6.917-4.584 11.068h-5.217l6.957 6.957 6.957-6.957h-5.217c0-3.229 1.283-6.325 3.566-8.608s5.38-3.566 8.608-3.566 6.325 1.283 8.608 3.566c2.283 2.283 3.566 5.38 3.566 8.608s-1.283 6.325-3.566 8.608c-2.283 2.283-5.38 3.566-8.608 3.566-2.609 0-5.061-0.87-7.061-2.261l-2.504 2.504c2.75 2.094 6.109 3.23 9.565 3.235 4.151 0 8.132-1.649 11.068-4.584s4.584-6.917 4.584-11.068-1.649-8.132-4.584-11.068c-2.935-2.935-6.917-4.584-11.068-4.584zM24.348 15.652c0-0.922-0.366-1.807-1.019-2.46s-1.537-1.019-2.46-1.019-1.807 0.366-2.46 1.019c-0.652 0.652-1.019 1.537-1.019 2.46s0.366 1.807 1.019 2.46c0.652 0.652 1.537 1.019 2.46 1.019s1.807-0.366 2.46-1.019c0.652-0.652 1.019-1.537 1.019-2.46z"></path>
</symbol>
<symbol id="icon-accaunt" viewBox="0 0 29 32">
<path d="M13.856 12.316c2.617 0 4.711-2.078 4.711-4.619s-2.094-4.619-4.711-4.619c-2.617 0-4.711 2.078-4.711 4.619s2.094 4.619 4.711 4.619zM13.856 15.395c-4.311 0-7.79-3.449-7.79-7.698s3.479-7.698 7.79-7.698c4.311 0 7.79 3.449 7.79 7.698s-3.479 7.698-7.79 7.698zM3.079 27.711h21.553v-2.048c0-2.694-3.556-5.481-10.777-5.481s-10.777 2.786-10.777 5.481v2.048zM13.856 17.104c10.253 0 13.856 5.127 13.856 8.56v5.127h-27.711v-5.127c0-3.433 3.602-8.56 13.856-8.56z"></path>
</symbol>
<symbol id="icon-phone" viewBox="0 0 21 32">
<path d="M2.667 0c-1.477 0-2.667 1.189-2.667 2.667v26.667c0 1.477 1.189 2.667 2.667 2.667h16c1.477 0 2.667-1.189 2.667-2.667v-26.667c0-1.477-1.189-2.667-2.667-2.667h-16zM4 2.667h13.333c0.739 0 1.333 0.595 1.333 1.333v18.667c0 0.739-0.595 1.333-1.333 1.333h-13.333c-0.354 0-0.693-0.14-0.943-0.391s-0.391-0.589-0.391-0.943v-18.667c0-0.739 0.595-1.333 1.333-1.333zM9.333 26.667h2.667c0.354 0 0.693 0.141 0.943 0.39s0.391 0.589 0.391 0.943-0.14 0.693-0.391 0.943c-0.25 0.25-0.589 0.39-0.943 0.39h-2.667c-0.354 0-0.693-0.141-0.943-0.39s-0.391-0.589-0.391-0.943 0.14-0.693 0.391-0.943c0.25-0.25 0.589-0.39 0.943-0.39z"></path>
</symbol>
<symbol id="icon-edit" viewBox="0 0 32 32">
<path d="M3.556 28.444h2.533l17.378-17.378-2.533-2.533-17.378 17.378v2.533zM0 32v-7.556l23.467-23.422c0.356-0.326 0.748-0.578 1.179-0.756s0.882-0.267 1.355-0.267c0.473 0 0.932 0.089 1.378 0.267s0.831 0.444 1.156 0.8l2.444 2.489c0.356 0.326 0.615 0.711 0.779 1.156s0.245 0.889 0.244 1.333c0 0.474-0.081 0.926-0.244 1.356s-0.422 0.823-0.779 1.177l-23.422 23.422h-7.556zM22.178 9.822l-1.244-1.289 2.533 2.533-1.289-1.244z"></path>
</symbol></defs>
</svg>
